Coordinates
version=1
nRows=4
nColumns=107
inDegrees=yes

Units are S.I. units (second, meters, Newtons, ...)
If the header above contains a line with 'inDegrees', this indicates whether rotational values are in degrees (yes) or radians (no).

endheader
time	sternoclavicular_r2	sternoclavicular_r3	unrotscap_r3	unrotscap_r2	acromioclavicular_r2	acromioclavicular_r3	acromioclavicular_r1	unrothum_r1	unrothum_r3	unrothum_r2	elv_angle	shoulder_elv	shoulder1_r2	shoulder_rot	elbow_flexion	pro_sup	deviation	flexion	proximal_distal_r1	proximal_distal_r3	cmc_flexion	cmc_abduction	mp_flexion	ip_flexion	mcp2_flexion	mcp2_abduction	pm2_flexion	md2_flexion	mcp3_flexion	mcp3_abduction	pm3_flexion	md3_flexion	mcp4_flexion	mcp4_abduction	pm4_flexion	md4_flexion	mcp5_flexion	mcp5_abduction	pm5_flexion	md5_flexion	bicpt_tx	bicpt_ty	bicpt_tz	bicpt2_tx	bicpt2_ty	bicpt2_tz	ptpt_tx	ptpt_ty	ptpt_tz	FCUpt_tx	FCUpt_ty	FCUpt_tz	EDCpt_tx	EDCpt_ty	EDCpt_tz	APLpt_tx	APLpt_ty	APLpt_tz	FPLpt_tx	FPLpt_ty	FPLpt_tz	FPLpt2_tx	FPLpt2_ty	FPLpt2_tz	PEC1pt2_tx	PEC1pt2_ty	PEC1pt2_tz	PEC1pt3_tx	PEC1pt3_ty	PEC1pt3_tz	PEC2pt2_tx	PEC2pt2_ty	PEC2pt2_tz	PEC2pt3_tx	PEC2pt3_ty	PEC2pt3_tz	PEC3pt2_tx	PEC3pt2_ty	PEC3pt2_tz	PEC3pt3_tx	PEC3pt3_ty	PEC3pt3_tz	DELT2pt2a_tx	DELT2pt2a_ty	DELT2pt2a_tz	DELT2pt2_tx	DELT2pt2_ty	DELT2pt2_tz	LAT1pt2_tx	LAT1pt2_ty	LAT1pt2_tz	LAT1pt3_tx	LAT1pt3_ty	LAT1pt3_tz	LAT2pt2_tx	LAT2pt2_ty	LAT2pt2_tz	LAT2pt3_tx	LAT2pt3_ty	LAT2pt3_tz	LAT3pt2_tx	LAT3pt2_ty	LAT3pt2_tz	LAT3pt3_tx	LAT3pt3_ty	LAT3pt3_tz
      0.53333333	     -0.31832434	      0.13482716	     -0.13482716	      0.31832434	     -0.06445420	      0.52089619	      0.23413925	     -0.23413925	     -0.52089619	      0.06445420	    100.50172044	     75.36611605	     -1.75408593	    -30.13670769	     30.94307319	     66.27604666	      0.29257498	      0.37831936	      0.32700207	      0.18915968	     37.62212925	    -16.27802186	     -4.02174640	      4.52232565	    -22.69948397	     10.60998132	     26.08144640	      1.85939212	    -15.03434596	     -1.79400343	     15.87646834	     16.01729100	     -3.37921460	     -1.37102710	      3.72034625	     21.51442325	     14.71996572	    -14.15683375	    -10.90303664	      5.02586468	      0.00092350	     -0.03114655	     -0.00487126	      0.01583374	     -0.01860584	     -0.00418100	      0.00265295	     -0.06806651	     -0.00538889	      0.01053222	     -0.18285044	     -0.00031297	     -0.00795311	      0.00255567	     -0.00022931	     -0.00050693	     -0.00020277	     -0.00101386	     -0.00064887	     -0.00194661	     -0.00109497	     -0.00001246	     -0.00015421	     -0.00018505	      0.00247034	      0.00866711	      0.00602929	     -0.00808093	      0.01951147	     -0.01850658	      0.00247034	      0.00866711	      0.00602929	      0.00054431	      0.01808788	     -0.00950451	      0.00391751	      0.00481967	      0.01589276	      0.00000000	      0.00759519	      0.00000000	     -0.00707605	     -0.03270055	     -0.00626153	      0.01893849	     -0.00076176	     -0.00756550	     -0.00087927	      0.01473828	     -0.00602929	      0.00242847	      0.02127001	     -0.01758544	     -0.00590368	      0.01277038	     -0.00540124	     -0.01230981	      0.02696434	     -0.03018834	     -0.02311230	      0.01427770	     -0.00724353	     -0.01532446	      0.03115135	     -0.03772496
      0.56666667	     -0.31830324	      0.13481823	     -0.13481823	      0.31830324	     -0.06444993	      0.52086167	      0.23412374	     -0.23412374	     -0.52086167	      0.06444993	    100.49711119	     75.36112113	     -1.75400548	    -30.13670742	     30.93780235	     66.27757656	      0.29255916	      0.37833377	      0.32698724	      0.18916688	     37.62177416	    -16.27771605	     -4.02205662	      4.52230783	    -22.69821401	     10.60981354	     26.08171285	      1.85960138	    -15.03299308	     -1.79416500	     15.87674653	     16.01734521	     -3.37850451	     -1.37086544	      3.72094755	     21.51451170	     14.71894120	    -14.15681822	    -10.90328692	      5.02584499	      0.00092333	     -0.03114595	     -0.00487116	      0.01583364	     -0.01860441	     -0.00418078	      0.00265283	     -0.06806659	     -0.00538901	      0.01053239	     -0.18285039	     -0.00031295	     -0.00795329	      0.00255575	     -0.00022934	     -0.00050696	     -0.00020278	     -0.00101392	     -0.00064891	     -0.00194672	     -0.00109503	     -0.00001246	     -0.00015421	     -0.00018505	      0.00247017	      0.00866654	      0.00602889	     -0.00808039	      0.01951017	     -0.01850536	      0.00247017	      0.00866654	      0.00602889	      0.00054428	      0.01808668	     -0.00950388	      0.00391732	      0.00481935	      0.01589229	      0.00000000	      0.00759417	      0.00000000	     -0.00707558	     -0.03269838	     -0.00626068	      0.01893849	     -0.00076176	     -0.00756550	     -0.00087921	      0.01473730	     -0.00602889	      0.00242830	      0.02126860	     -0.01758428	     -0.00590329	      0.01276953	     -0.00540088	     -0.01230899	      0.02696256	     -0.03018634	     -0.02311076	      0.01427676	     -0.00724305	     -0.01532344	      0.03114929	     -0.03772246
      0.60000000	     -0.31924229	      0.13521596	     -0.13521596	      0.31924229	     -0.06464007	      0.52239830	      0.23481444	     -0.23481444	     -0.52239830	      0.06464007	    100.23649445	     75.58344880	     -1.74945686	    -29.01170328	     30.93925908	     65.66101495	      0.30335484	      0.39546258	      0.33637281	      0.19773129	     37.41553641	    -16.13873067	     -3.90779466	      4.25108174	    -22.10579639	     10.37862184	     25.64575471	      1.65652781	    -14.41517506	     -2.01080386	     15.32717304	     15.99449230	     -3.32124040	     -1.50421960	      4.43791516	     22.12517446	     14.71823935	    -14.17489545	    -10.63103525	      5.04490219	      0.00092337	     -0.03114611	     -0.00487119	      0.01586912	     -0.01860480	     -0.00426904	      0.00269839	     -0.06803713	     -0.00533935	      0.01046537	     -0.18286776	     -0.00032063	     -0.00787930	      0.00252572	     -0.00021624	     -0.00053558	     -0.00021423	     -0.00107116	     -0.00068555	     -0.00205664	     -0.00115686	     -0.00001256	     -0.00015767	     -0.00018920	      0.00247746	      0.00869210	      0.00604668	     -0.00810423	      0.01956773	     -0.01855995	      0.00247746	      0.00869210	      0.00604668	      0.00054588	      0.01814004	     -0.00953192	      0.00392579	      0.00483357	      0.01591323	      0.00000000	      0.00763935	      0.00000000	     -0.00709645	     -0.03279485	     -0.00629820	      0.01843338	     -0.00072350	     -0.00702358	     -0.00088181	      0.01478078	     -0.00604668	      0.00243547	      0.02133135	     -0.01763615	     -0.00592071	      0.01280721	     -0.00541682	     -0.01234531	      0.02704210	     -0.03027540	     -0.02317894	      0.01431888	     -0.00726442	     -0.01536865	      0.03124119	     -0.03783375
      0.63333333	     -0.31720576	      0.13435339	     -0.13435339	      0.31720576	     -0.06422771	      0.51906580	      0.23331650	     -0.23331650	     -0.51906580	      0.06422771	    100.80489412	     75.10128386	     -1.75937730	    -31.56640082	     31.08054899	     68.12438794	      0.28798481	      0.37985020	      0.32295353	      0.18992510	     37.86795589	    -16.10594093	     -4.81962106	      4.78161204	    -22.32840480	     10.47699737	     25.71124411	      3.84349609	    -14.47374479	     -1.80923610	     15.92840131	     15.97708579	     -3.05555582	     -1.38493661	      4.42031049	     21.19352909	     14.88016284	    -14.14788494	    -10.69413045	      5.05657891	      0.00092805	     -0.03116231	     -0.00487379	      0.01572217	     -0.01864318	     -0.00391319	      0.00251638	     -0.06815482	     -0.00553779	      0.01073383	     -0.18279771	     -0.00028823	     -0.00817491	      0.00264638	     -0.00026983	     -0.00050947	     -0.00020379	     -0.00101894	     -0.00065212	     -0.00195637	     -0.00110046	     -0.00001234	     -0.00015004	     -0.00018005	      0.00246166	      0.00863665	      0.00600811	     -0.00805253	      0.01944290	     -0.01844155	      0.00246166	      0.00863665	      0.00600811	      0.00054240	      0.01802432	     -0.00947111	      0.00390739	      0.00480273	      0.01586766	      0.00000000	      0.00754154	      0.00000000	     -0.00705118	     -0.03258564	     -0.00621698	      0.01955600	     -0.00081090	     -0.00827621	     -0.00087618	      0.01468649	     -0.00600811	      0.00241993	      0.02119527	     -0.01752365	     -0.00588294	      0.01272551	     -0.00538226	     -0.01226655	      0.02686959	     -0.03008226	     -0.02303108	      0.01422753	     -0.00721807	     -0.01527061	      0.03104189	     -0.03759240
